<?xml version="1.0" standalone="no"?>
<!DOCTYPE svg PUBLIC "-//W3C//DTD SVG 20010904//EN"
 "http://www.w3.org/TR/2001/REC-SVG-20010904/DTD/svg10.dtd">
<svg version="1.0" xmlns="http://www.w3.org/2000/svg"
 width="1260.000000pt" height="1280.000000pt" viewBox="0 0 1260.000000 1280.000000"
 preserveAspectRatio="xMidYMid meet">
<metadata>
Created by potrace 1.15, written by Peter Selinger 2001-2017
</metadata>
<g transform="translate(0.000000,1280.000000) scale(0.100000,-0.100000)"
fill="#00bcd4" stroke="none">
<path d="M7227 12785 c-22 -7 -50 -23 -63 -36 -28 -26 -48 -81 -39 -109 10
-32 52 -76 85 -90 l31 -13 -3 -146 -3 -146 -677 -3 c-373 -1 -678 -5 -678 -8
0 -3 32 -48 72 -100 69 -90 74 -94 110 -94 l38 0 0 -49 c0 -46 5 -56 60 -126
l61 -76 -61 -78 c-58 -75 -60 -80 -60 -137 l0 -59 -43 3 -43 4 -68 -89 -68
-88 397 -3 c346 -2 396 -4 391 -17 -3 -8 -269 -368 -591 -800 l-586 -785 -975
0 -974 0 0 519 0 519 29 12 c102 42 98 152 -6 196 -46 20 -140 17 -189 -5
-104 -47 -98 -151 11 -197 l35 -14 0 -150 0 -150 -656 -2 -656 -3 74 -97 c61
-81 78 -97 101 -98 24 0 27 -4 27 -36 0 -28 13 -51 61 -114 41 -52 58 -83 53
-92 -5 -7 -32 -44 -61 -82 -40 -51 -53 -76 -53 -102 0 -30 -3 -34 -27 -34 -23
-1 -39 -16 -93 -88 -36 -48 -66 -90 -68 -94 -2 -5 287 -8 642 -8 l646 0 0 -79
0 -79 -497 -443 c-274 -243 -503 -448 -509 -455 -9 -11 -62 -14 -253 -14
l-241 0 0 -65 0 -65 135 0 c74 0 135 -3 135 -6 0 -3 -34 -106 -76 -227 -106
-312 -164 -545 -164 -659 l0 -38 -296 0 -295 0 -26 30 c-51 61 -152 77 -212
33 -91 -68 -95 -176 -9 -248 l33 -28 5 -143 5 -144 -567 -2 -568 -3 58 -82
c47 -69 62 -82 85 -83 24 0 27 -4 27 -36 0 -28 13 -53 55 -112 32 -44 51 -80
46 -86 -4 -6 -29 -39 -54 -73 -28 -36 -47 -72 -47 -87 0 -19 -5 -26 -20 -26
-13 0 -43 -31 -89 -92 l-70 -93 572 -3 572 -2 -3 -253 -3 -252 -59 -60 -59
-60 351 -365 c193 -201 440 -458 549 -571 l198 -206 -16 -64 c-12 -46 -17
-111 -17 -234 -1 -165 0 -172 26 -228 69 -147 347 -489 798 -982 106 -115 238
-272 295 -347 172 -229 323 -481 371 -616 l23 -67 1741 -3 1740 -2 0 -413 -1
-412 -89 -43 c-204 -96 -322 -271 -323 -477 0 -146 44 -256 147 -363 73 -76
164 -132 266 -164 97 -30 272 -32 365 -4 301 90 480 374 409 650 -43 167 -192
327 -355 381 l-49 17 0 414 0 414 1904 0 c1805 0 1905 1 1910 18 3 9 41 145
86 302 44 157 83 290 85 297 2 6 -22 26 -53 44 -84 47 -167 132 -204 207 -43
86 -50 201 -20 318 58 232 274 541 585 840 l127 122 295 1038 c163 572 298
1046 301 1056 3 9 16 19 29 22 14 4 40 20 60 37 90 79 32 200 -104 216 -156
18 -259 -134 -149 -221 l31 -24 -44 -131 -44 -131 -157 0 -158 0 0 408 0 408
130 89 130 88 0 84 c0 83 0 84 -22 77 -13 -3 -71 -23 -130 -44 l-108 -38 0
749 0 749 100 0 100 0 0 75 0 75 -264 0 -263 0 -451 378 -451 377 0 575 -1
575 41 23 c57 33 81 75 76 135 -5 54 -30 88 -89 118 -45 23 -140 25 -190 5
-76 -32 -119 -107 -98 -171 12 -36 64 -89 99 -100 20 -6 21 -13 21 -181 l0
-174 -564 -2 -565 -3 72 -97 c60 -81 76 -97 100 -98 24 0 27 -3 27 -36 0 -29
13 -52 65 -120 36 -46 65 -86 65 -89 0 -2 -173 -5 -384 -5 l-384 1 -480 742
c-264 408 -627 969 -806 1247 l-326 505 0 157 c0 143 2 157 18 162 10 4 32 20
48 37 39 41 41 105 4 145 -54 58 -143 78 -223 49z m-565 -822 l98 -98 100 100
100 100 35 -35 35 -35 -100 -100 -100 -100 102 -102 103 -103 -35 -35 -35 -35
-104 101 -103 102 -102 -102 -102 -101 -34 35 -34 35 99 100 100 100 -98 98
c-53 53 -97 102 -97 107 0 13 51 65 64 65 6 0 55 -44 108 -97z m1442 -1080
c383 -611 699 -1119 702 -1127 5 -13 -23 -15 -234 -15 l-241 0 -473 525 c-356
396 -474 533 -476 555 -3 24 3 31 39 49 62 32 89 66 89 111 0 44 -40 90 -95
110 l-35 13 0 460 c0 389 2 458 14 446 7 -8 327 -515 710 -1127z m-942 344 l0
-108 -64 -32 c-48 -24 -67 -41 -81 -69 -16 -33 -16 -40 -4 -71 17 -38 58 -71
114 -91 77 -27 80 -23 -491 -594 l-522 -523 -232 1 c-128 1 -232 3 -232 5 0 4
1054 1429 1137 1538 l45 57 165 -2 165 -3 0 -108z m968 -1478 c0 -5 -169 -8
-375 -9 l-375 0 0 446 0 446 375 -438 c206 -240 375 -441 375 -445z m-967 434
l-3 -438 -421 -2 c-247 -2 -419 1 -417 6 4 11 831 870 838 871 3 0 4 -197 3
-437z m-4281 30 l98 -98 98 98 c53 53 102 97 107 97 5 0 24 -14 42 -32 l33
-32 -100 -101 -100 -100 100 -100 100 -99 -37 -38 -37 -38 -101 100 -100 100
-100 -100 -99 -100 -38 37 -38 37 100 101 100 100 -100 100 -100 99 32 33 c18
18 34 33 37 33 3 0 50 -44 103 -97z m7438 -295 l104 99 34 -35 35 -34 -102
-102 -101 -101 100 -100 100 -100 -35 -35 -35 -35 -100 100 -100 100 -103
-103 -103 -102 -32 33 c-18 18 -32 37 -32 42 0 5 44 54 97 107 l98 98 -100
100 -99 100 34 35 34 35 101 -100 102 -101 103 99z m-4920 -293 c0 -13 -802
-1076 -810 -1073 -5 2 -223 208 -484 458 l-474 455 -1 83 -1 82 885 0 c487 0
885 -2 885 -5z m390 -1 c0 -4 -25 -40 -56 -81 -199 -264 -332 -583 -380 -913
-24 -167 -15 -451 19 -610 64 -294 187 -578 373 -863 35 -54 64 -99 64 -100 0
-1 -145 -1 -322 1 l-323 3 -49 122 c-148 370 -288 757 -381 1059 -25 81 -48
154 -51 162 -5 14 4 16 65 16 l71 0 0 65 c0 63 -1 65 -26 65 -14 0 -24 4 -22
8 2 5 180 248 397 540 l394 532 113 0 c63 0 114 -3 114 -6z m780 -3 c0 -27
-71 -99 -125 -126 -57 -29 -66 -30 -186 -30 -120 0 -128 1 -184 30 -54 27
-125 99 -125 126 0 5 127 9 310 9 183 0 310 -4 310 -9z m591 -106 l0 -110 -43
3 c-180 14 -366 102 -414 194 l-15 28 236 -2 237 -3 -1 -110z m963 89 c-66
-101 -313 -178 -641 -200 l-103 -7 0 117 0 116 380 0 380 0 -16 -26z m706
-499 c7 -574 8 -584 76 -796 51 -160 151 -343 284 -524 l29 -40 -20 -90 c-37
-173 -35 -376 7 -567 l6 -28 -325 0 -325 0 -63 78 c-202 250 -321 537 -386
927 -26 156 -25 579 1 750 45 300 144 606 249 773 l27 42 218 -2 217 -3 5
-520z m850 519 c0 -3 -11 -20 -25 -38 -14 -19 -25 -46 -25 -64 0 -27 -4 -32
-24 -32 -18 0 -37 -17 -74 -67 l-51 -68 520 -5 520 -5 -425 -357 -425 -358
-231 0 -230 0 0 -75 0 -75 131 0 c120 0 131 -1 126 -17 -3 -10 -30 -76 -61
-148 -30 -71 -75 -189 -98 -262 -24 -73 -46 -132 -50 -133 -4 0 -30 32 -58 72
-66 94 -162 289 -199 405 -55 169 -59 218 -67 734 -3 263 -3 482 0 488 7 11
746 17 746 5z m-5656 -708 c212 -197 386 -360 386 -362 0 -2 -175 -4 -390 -4
l-390 0 -2 365 c-2 201 0 364 3 363 3 -2 180 -164 393 -362z m-614 -11 l0
-355 -400 0 c-220 0 -400 3 -399 8 0 6 788 700 797 701 1 1 2 -159 2 -354z
m7658 -4 c171 -144 312 -264 312 -266 0 -3 -153 -5 -340 -5 l-340 0 0 292 0
292 28 -26 c15 -14 168 -143 340 -287z m-511 -268 c-2 -2 -154 -2 -336 -1
l-333 3 334 281 333 280 3 -279 c1 -154 1 -282 -1 -284z m-73 -162 c-20 -20
-160 -84 -247 -112 -210 -69 -373 -43 -464 75 -13 16 -23 33 -23 37 0 5 167 9
372 9 232 0 368 -4 362 -9z m1056 2 c0 -13 -141 -113 -202 -144 -32 -16 -88
-36 -125 -45 -136 -31 -293 17 -399 122 -30 30 -54 59 -54 64 0 6 142 10 390
10 215 0 390 -3 390 -7z m283 -1524 c-5 -4 -61 -25 -126 -48 l-117 -41 -46 58
c-98 123 -162 252 -189 384 -66 310 100 744 424 1117 l56 65 3 -764 c1 -420
-1 -767 -5 -771z m-8953 1462 c0 -4 -23 -29 -50 -55 -112 -105 -276 -140 -359
-79 -37 28 -79 84 -86 116 l-7 27 251 0 c138 0 251 -4 251 -9z m540 -121 l0
-130 -47 6 c-200 24 -358 117 -379 222 l-6 32 216 0 216 0 0 -130z m469 109
c-32 -61 -140 -154 -214 -185 l-35 -14 0 110 0 110 130 0 c131 0 131 0 119
-21z m571 0 c-67 -56 -207 -104 -279 -96 -52 6 -101 50 -101 92 l0 25 203 0
202 -1 -25 -20z m169 -211 c63 -198 266 -738 384 -1020 l45 -108 -319 0 -318
0 -15 53 c-67 232 -51 534 43 810 39 113 138 337 150 337 4 0 17 -33 30 -72z
m3055 -849 c168 -51 362 -157 448 -246 l37 -38 -354 3 -355 2 0 159 c0 87 2
160 5 163 8 8 135 -17 219 -43z m-584 -124 l0 -155 -146 0 -146 0 7 33 c23
104 119 211 230 256 28 11 51 20 53 20 1 1 2 -69 2 -154z m-5152 105 c4 -64
44 -222 73 -293 38 -94 109 -210 183 -299 56 -67 65 -73 103 -76 38 -3 45 1
84 42 53 59 91 82 164 101 73 19 155 8 232 -32 51 -26 123 -92 123 -113 0 -7
-206 -10 -595 -10 l-595 0 0 -65 0 -65 33 0 c23 0 41 -8 58 -26 72 -77 226
-163 344 -190 39 -9 78 -19 88 -22 14 -6 -61 -86 -358 -382 l-375 -375 -110
110 -110 110 0 774 0 775 37 38 37 38 291 -2 290 -3 3 -35z m4405 -35 c97 -20
181 -68 262 -150 l70 -70 -359 -3 c-198 -1 -361 0 -364 3 -10 9 36 93 73 134
52 57 140 96 225 100 14 0 55 -6 93 -14z m-2933 -520 l0 -125 -232 2 c-128 1
-217 3 -197 5 26 3 40 11 52 32 30 51 109 121 172 151 48 24 148 54 198 59 4
1 7 -55 7 -124z m-2587 13 l103 102 34 -35 34 -35 -97 -98 c-53 -53 -97 -102
-97 -107 0 -5 44 -54 97 -107 l97 -98 -34 -35 -34 -35 -103 102 -103 103 -103
-103 -103 -102 -34 35 -34 35 102 103 102 102 -102 102 -102 103 34 35 34 35
103 -102 103 -103 103 103z m2912 53 c77 -36 123 -75 146 -126 31 -67 33 -65
-116 -65 l-135 0 0 116 c0 133 -8 127 105 75z m561 -55 c79 -21 166 -72 203
-119 13 -16 0 -17 -223 -17 l-236 0 20 40 c49 96 123 126 236 96z m5015 -34
c21 -66 90 -225 124 -287 26 -46 86 -109 259 -275 l225 -215 -103 -105 c-108
-111 -215 -239 -262 -314 -16 -25 -31 -46 -34 -46 -3 1 -99 202 -214 448 -115
246 -233 498 -263 560 -52 112 -53 114 -31 120 43 11 173 82 223 121 28 21 53
37 57 35 3 -2 12 -21 19 -42z m1168 -169 l0 -208 -120 -75 c-66 -41 -168 -111
-226 -155 -58 -44 -113 -85 -122 -92 -14 -10 -40 10 -176 134 -88 80 -187 170
-219 200 l-60 53 55 56 c108 111 287 210 458 254 108 28 180 37 304 39 l107 1
-1 -207z m471 182 c88 -15 196 -54 183 -65 -9 -8 -316 -148 -345 -157 -17 -5
-18 5 -18 120 l0 126 53 -5 c28 -3 86 -12 127 -19z m-6279 -30 c107 -56 199
-76 393 -83 l169 -7 88 -194 c49 -106 89 -197 89 -201 0 -9 -431 -373 -436
-368 -14 15 -303 622 -298 629 3 5 36 9 75 9 l69 0 0 65 0 64 -107 3 -106 3
-39 64 -40 64 38 -6 c21 -4 68 -22 105 -42z m7156 -812 c-2 -2 -149 -2 -325
-1 l-322 3 52 88 c121 205 309 419 503 574 l90 72 3 -366 c1 -201 1 -368 -1
-370z m-6287 641 c36 -9 102 -17 147 -17 l82 -1 -42 -36 c-172 -147 -223 -188
-228 -182 -9 9 -139 293 -139 302 0 4 26 -6 58 -22 31 -15 86 -35 122 -44z
m3623 -553 l288 -610 -52 -103 c-69 -137 -120 -258 -110 -258 5 0 64 27 132
60 68 33 129 60 134 60 6 0 37 -58 71 -129 l61 -128 -96 -6 c-129 -7 -167 -20
-222 -76 -48 -47 -64 -85 -76 -173 l-6 -48 -41 0 -41 0 -405 932 c-223 512
-406 937 -408 944 -2 8 18 15 65 19 88 10 203 46 278 89 40 23 74 35 100 35
l40 1 288 -609z m-2373 524 c41 -66 130 -125 243 -161 l57 -18 0 -648 c0 -477
-3 -648 -11 -648 -24 0 -189 179 -246 266 -153 234 -293 577 -400 983 -37 143
-37 151 16 151 46 0 176 41 241 75 36 19 68 34 72 34 3 1 16 -15 28 -34z
m-771 -39 c50 -14 133 -30 185 -36 l93 -12 38 -157 c151 -628 346 -1010 664
-1301 l92 -83 -3 -106 -3 -106 -408 0 -408 0 -75 165 c-42 91 -204 434 -361
762 l-285 597 28 24 c273 230 331 276 341 277 6 0 52 -11 102 -24z m2192 7
l60 -6 30 -65 c16 -36 29 -66 29 -68 0 -2 -43 -4 -96 -4 l-95 0 -26 58 c-49
112 -49 106 -3 98 23 -3 68 -9 101 -13z m-208 -80 l26 -63 -88 0 c-88 0 -89 0
-97 28 -4 15 -8 30 -8 35 -1 10 128 75 135 68 3 -3 18 -34 32 -68z m-3253
-304 c100 -209 141 -305 134 -314 -12 -18 -285 -248 -288 -243 -2 1 -61 116
-131 253 -70 138 -145 283 -167 323 -36 65 -38 73 -21 78 61 19 188 93 248
144 39 33 72 60 75 60 3 0 70 -135 150 -301z m2990 261 c10 -19 8 -20 -67 -19
l-78 1 65 18 c36 9 66 18 67 19 1 0 7 -8 13 -19z m-4782 -50 c43 -26 164 -70
236 -85 25 -5 27 -8 14 -23 -58 -67 -543 -607 -547 -609 -9 -4 -109 219 -154
342 -47 130 -98 306 -91 317 3 4 29 8 58 8 64 0 265 34 356 59 36 11 68 19 72
20 4 1 29 -12 56 -29z m4579 -87 c22 -60 161 -423 308 -808 147 -385 270 -710
273 -723 l4 -22 -333 2 -334 3 -3 815 c-1 448 0 821 3 828 2 6 13 12 23 12 15
0 28 -24 59 -107z m278 -45 c21 -51 39 -99 42 -105 4 -10 -15 -13 -73 -13
l-79 0 -34 93 c-19 50 -36 98 -39 105 -3 9 15 12 71 12 l75 0 37 -92z m292
-12 c24 -55 43 -101 43 -103 0 -1 -40 -3 -89 -3 l-89 0 -41 99 c-22 55 -41
102 -41 106 0 3 39 4 87 3 l87 -3 43 -99z m299 4 c24 -52 43 -99 43 -103 1 -4
-42 -6 -95 -5 l-95 3 -35 80 c-20 44 -40 90 -45 103 l-9 23 97 -3 97 -3 42
-95z m-6022 -167 c35 -107 95 -252 157 -374 27 -54 49 -103 49 -109 0 -5 -118
-141 -262 -301 l-261 -291 -248 248 -248 249 387 388 387 387 6 -57 c4 -32 18
-95 33 -140z m1303 20 c40 -98 139 -344 222 -548 83 -203 150 -375 149 -381
-3 -11 -27 -31 -300 -262 l-158 -133 0 750 c0 413 4 751 8 751 5 0 40 -80 79
-177z m173 170 c28 -5 36 -14 61 -69 16 -35 29 -66 29 -69 0 -3 -42 -5 -94 -5
l-93 0 -28 63 c-15 34 -29 68 -32 75 -6 13 98 17 157 5z m343 -78 c15 -31 27
-58 27 -60 0 -3 -42 -5 -93 -5 l-94 0 -26 60 -26 60 93 0 92 0 27 -55z m-863
-700 c0 -728 0 -745 -19 -745 -22 0 -61 44 -223 255 -144 187 -253 342 -325
463 l-56 93 20 22 c183 205 595 657 599 657 2 0 4 -335 4 -745z m2329 272
c224 -471 471 -1004 471 -1012 0 -3 -134 -4 -297 -3 l-296 3 -200 410 c-109
226 -227 469 -262 542 l-63 132 215 181 c119 99 219 180 222 180 3 0 98 -195
210 -433z m-1648 204 c27 -63 49 -116 49 -118 0 -2 -43 -2 -96 -1 l-96 3 -30
70 c-16 39 -38 92 -49 118 l-19 48 96 -3 95 -3 50 -114z m291 -1 l57 -120
-103 0 -103 0 -15 38 c-9 20 -32 74 -51 120 l-36 82 97 0 97 -1 57 -119z
m3625 -9 c23 -57 43 -106 43 -108 0 -2 -37 -3 -82 -1 l-83 3 -37 95 c-20 52
-37 101 -37 108 -1 10 18 12 76 10 l76 -3 44 -104z m289 9 c24 -52 43 -101 43
-108 1 -10 -21 -12 -90 -10 l-90 3 -40 95 c-21 52 -39 101 -39 108 0 10 21 12
87 10 l87 -3 42 -95z m294 16 c22 -47 42 -96 46 -110 l6 -26 -91 0 -92 0 -40
86 c-65 142 -67 134 41 134 l91 0 39 -84z m3095 -196 l100 -100 102 102 103
102 35 -34 35 -34 -102 -103 -103 -103 103 -103 102 -103 -35 -34 -35 -34
-103 102 -102 102 -102 -102 -103 -102 -35 34 -35 34 102 103 103 103 -103
103 -102 102 32 33 c18 17 35 32 38 32 3 0 50 -45 105 -100z m-7474 -100 c27
-63 49 -116 49 -118 0 -1 -43 -1 -96 0 l-95 3 -50 114 c-27 63 -49 116 -49
118 0 2 43 2 96 1 l95 -3 50 -115z m304 4 c30 -65 55 -119 55 -121 0 -2 -48
-2 -107 -1 l-106 3 -53 118 -52 117 104 0 104 0 55 -116z m3607 -13 c21 -52
38 -98 38 -103 0 -4 -38 -8 -83 -8 l-84 0 -36 98 c-21 55 -37 102 -37 106 0 4
37 6 82 4 l82 -3 38 -94z m276 52 c11 -27 32 -74 46 -105 l26 -58 -98 0 -97 0
-24 58 c-12 31 -32 78 -42 105 l-19 47 94 0 94 0 20 -47z m327 -58 l44 -100
-86 -3 c-48 -2 -92 -1 -98 2 -10 3 -60 109 -91 191 -6 14 6 15 90 13 l97 -3
44 -100z m-3476 -397 c128 -270 236 -499 239 -510 4 -17 -6 -18 -185 -18
l-190 0 -198 386 c-193 378 -197 386 -179 405 28 28 268 228 274 228 3 0 110
-221 239 -491z m-942 185 c49 -109 49 -107 6 -142 -32 -26 -45 -31 -81 -29
l-43 3 -50 114 c-27 63 -49 116 -49 118 0 2 42 3 94 3 l93 0 30 -67z m188 11
c-36 -31 -68 -54 -70 -52 -4 4 -45 98 -45 104 0 2 41 4 91 4 l90 0 -66 -56z
m3739 -66 c21 -51 40 -99 43 -105 4 -10 -17 -13 -85 -13 l-91 0 -31 83 c-18
45 -36 92 -41 105 -8 22 -8 22 79 22 l88 0 38 -92z m312 -13 c24 -55 44 -101
44 -103 0 -1 -45 -1 -101 0 l-100 3 -40 95 c-21 52 -39 99 -39 103 0 4 43 6
96 5 l96 -3 44 -100z m300 1 c24 -54 44 -100 44 -103 0 -2 -43 -2 -96 -1 l-97
3 -36 85 c-21 47 -40 93 -44 103 -6 16 1 18 89 15 l96 -3 44 -99z m-5925 -229
c82 -122 168 -235 251 -329 38 -42 68 -79 68 -82 0 -3 -45 -6 -100 -6 l-100 0
0 -180 0 -180 -148 0 -148 0 -262 264 c-144 145 -262 269 -262 274 0 6 113
135 251 287 l252 277 68 -116 c37 -64 96 -158 130 -209z m1751 203 l37 -81
-117 3 c-95 2 -117 6 -119 18 -2 13 141 140 157 140 3 0 22 -36 42 -80z m5878
-165 l0 -245 -338 0 -338 0 -71 152 -71 153 46 18 c179 68 566 154 755 166 16
1 17 -17 17 -244z m-6137 8 c8 -21 31 -75 51 -120 l35 -83 -95 0 -94 0 -25 56
c-14 31 -25 62 -25 69 0 12 118 115 131 115 4 0 14 -17 22 -37z m372 -75 c30
-62 55 -116 55 -120 0 -5 -53 -8 -118 -8 l-118 0 -50 112 c-27 61 -50 115 -52
120 -2 4 49 8 113 8 l116 0 54 -112z m7275 91 c0 -7 -18 -70 -40 -140 l-41
-129 -569 0 -570 0 0 133 c0 74 3 137 7 140 3 4 278 7 610 7 444 0 603 -3 603
-11z m-3705 -117 l43 -103 -95 3 -96 3 -38 99 c-22 55 -39 101 -39 103 0 2 41
2 91 1 l91 -3 43 -103z m312 4 c24 -55 43 -101 43 -103 0 -1 -46 -3 -102 -3
l-103 0 -40 97 c-22 53 -42 101 -43 105 -2 5 42 7 99 6 l103 -3 43 -99z m300
4 c23 -52 42 -99 42 -103 1 -4 -42 -6 -95 -5 l-95 3 -35 80 c-20 44 -40 90
-45 103 l-9 23 97 -3 97 -3 43 -95z m-4728 -202 c33 -84 61 -156 61 -160 0 -5
-112 -8 -250 -8 -137 0 -250 3 -249 8 0 7 360 310 370 311 3 1 34 -68 68 -151z
m319 -45 c23 -54 42 -104 42 -111 0 -10 -22 -12 -91 -10 l-91 3 -44 103 c-24
57 -44 106 -44 108 0 2 42 4 93 4 l94 0 41 -97z m360 -8 c28 -58 52 -108 52
-110 0 -3 -57 -4 -127 -3 l-127 3 -48 108 -47 107 122 0 122 0 53 -105z m3541
-7 c18 -46 35 -89 38 -96 4 -10 -16 -12 -93 -10 l-98 3 -33 85 c-18 47 -33 88
-33 93 0 4 42 7 93 7 l94 0 32 -82z m321 -4 c22 -47 40 -90 40 -95 0 -5 -47
-9 -104 -9 l-104 0 -36 86 c-20 47 -36 90 -36 95 0 5 45 9 100 9 l101 0 39
-86z m303 -2 c20 -48 37 -91 37 -95 0 -13 -177 -8 -187 6 -13 16 -73 155 -73
167 0 6 38 10 93 10 l93 0 37 -88z m-4188 -727 l0 -175 -177 0 -178 0 0 178 0
177 177 -3 178 -3 0 -174z m685 0 l0 -175 -180 0 -180 0 0 175 0 175 180 0
180 0 0 -175z m685 0 l0 -175 -177 0 -178 0 0 175 0 175 178 0 177 0 0 -175z
m685 0 l0 -175 -180 0 -180 0 0 175 0 175 180 0 180 0 0 -175z m1200 0 l0
-175 -180 0 -180 0 0 175 0 175 180 0 180 0 0 -175z m680 0 l0 -175 -180 0
-180 0 0 175 0 175 180 0 180 0 0 -175z m690 0 l0 -175 -180 0 -180 0 0 175 0
175 180 0 180 0 0 -175z m680 0 l0 -175 -180 0 -180 0 0 175 0 175 180 0 180
0 0 -175z m-7195 -415 l290 -290 -91 0 c-119 0 -184 19 -223 67 -28 34 -58
121 -63 187 -3 27 -8 31 -60 43 -124 27 -168 70 -168 160 0 58 10 123 19 123
3 0 137 -130 296 -290z m1615 -290 l0 -180 -180 0 -180 0 0 180 0 180 180 0
180 0 0 -180z m680 0 l0 -180 -175 2 -176 3 -2 178 -2 177 178 0 177 0 0 -180z
m688 3 l-3 -178 -177 -3 -178 -2 0 180 0 180 180 0 180 0 -2 -177z m682 -3 l0
-180 -175 2 -176 3 -2 178 -2 177 178 0 177 0 0 -180z m1740 0 l0 -180 -180 0
-180 0 0 180 0 180 180 0 180 0 0 -180z m680 0 l0 -180 -175 0 -175 0 0 180 0
180 175 0 175 0 0 -180z m690 0 l0 -180 -180 0 -180 0 0 180 0 180 180 0 180
0 0 -180z"/>
</g>
</svg>
